<svg width="33" height="33" viewBox="0 0 33 33" fill="none" xmlns="http://www.w3.org/2000/svg">
<path d="M20.9577 19.3986H19.9043L19.531 19.0386C20.8377 17.5186 21.6243 15.5453 21.6243 13.3986C21.6243 8.61193 17.7443 4.73193 12.9577 4.73193C8.17102 4.73193 4.29102 8.61193 4.29102 13.3986C4.29102 18.1853 8.17102 22.0653 12.9577 22.0653C15.1043 22.0653 17.0777 21.2786 18.5977 19.9719L18.9577 20.3453V21.3986L25.6243 28.0519L27.611 26.0653L20.9577 19.3986ZM12.9577 19.3986C9.63768 19.3986 6.95768 16.7186 6.95768 13.3986C6.95768 10.0786 9.63768 7.3986 12.9577 7.3986C16.2777 7.3986 18.9577 10.0786 18.9577 13.3986C18.9577 16.7186 16.2777 19.3986 12.9577 19.3986Z" fill="#8C8C8C"/>
</svg>
