<svg width="32" height="27" viewBox="0 0 32 27" fill="none" xmlns="http://www.w3.org/2000/svg">
<path d="M7.668 25.856C7.74 26.144 8.028 26.36 8.316 26.36H8.892C9.144 26.36 9.396 26.18 9.504 25.964L16.056 11.24H16.164L22.752 25.964C22.86 26.18 23.112 26.36 23.364 26.36H23.94C24.228 26.36 24.516 26.144 24.588 25.856L31.392 1.664C31.536 1.16 31.248 0.799998 30.744 0.799998H26.532C26.244 0.799998 25.956 1.052 25.884 1.304L22.788 13.508H22.644L17.064 0.835998C16.992 0.619998 16.776 0.439999 16.452 0.439999H15.804C15.516 0.439999 15.3 0.619998 15.192 0.835998L9.612 13.508H9.468L6.372 1.304C6.3 1.052 6.012 0.799998 5.724 0.799998H1.512C1.008 0.799998 0.72 1.16 0.864 1.664L7.668 25.856Z" fill="url(#paint0_linear)"/>
<defs>
<linearGradient id="paint0_linear" x1="33" y1="13.5" x2="2.3371e-07" y2="13.5" gradientUnits="userSpaceOnUse">
<stop stop-color="#471F9C"/>
<stop offset="1" stop-color="#3372EE"/>
</linearGradient>
</defs>
</svg>
