<svg width="151" height="37" viewBox="0 0 151 37" fill="none" xmlns="http://www.w3.org/2000/svg">
<path d="M7.81058 25.856C7.88258 26.144 8.17058 26.36 8.45858 26.36H9.03458C9.28658 26.36 9.53858 26.18 9.64658 25.964L16.1986 11.24H16.3066L22.8946 25.964C23.0026 26.18 23.2546 26.36 23.5066 26.36H24.0826C24.3706 26.36 24.6586 26.144 24.7306 25.856L31.5346 1.664C31.6786 1.16 31.3906 0.799998 30.8866 0.799998H26.6746C26.3866 0.799998 26.0986 1.052 26.0266 1.304L22.9306 13.508H22.7866L17.2066 0.835998C17.1346 0.619998 16.9186 0.439999 16.5946 0.439999H15.9466C15.6586 0.439999 15.4426 0.619998 15.3346 0.835998L9.75458 13.508H9.61058L6.51458 1.304C6.44258 1.052 6.15458 0.799998 5.86658 0.799998H1.65458C1.15058 0.799998 0.862578 1.16 1.00658 1.664L7.81058 25.856ZM31.2083 21.608C31.2083 24.452 33.3323 26.36 36.1763 26.36C38.4443 26.36 39.7043 25.316 40.5323 24.56L41.0363 25.532C41.2163 25.928 41.4683 26 41.6843 26H43.2683C43.6283 26 43.9523 25.676 43.9523 25.316V17.36C43.9523 13.112 42.3323 11.24 37.8683 11.24C35.9243 11.24 33.4043 11.672 33.0803 11.78C32.7563 11.888 32.4323 12.14 32.5403 12.752L32.8643 15.02C32.9363 15.56 33.1883 15.956 33.7283 15.776C34.6643 15.488 36.3563 15.236 37.3283 15.236C39.0563 15.236 39.2723 15.956 39.2723 17.36C39.2723 17.36 38.1203 16.784 36.5003 16.784C33.2243 16.784 31.2083 18.836 31.2083 21.608ZM35.8883 21.248C35.8883 20.42 36.5723 19.736 37.4363 19.736C38.3003 19.736 38.9843 20.42 39.0203 21.248C39.0203 22.112 38.3003 22.832 37.4363 22.832C36.5723 22.832 35.8883 22.112 35.8883 21.248ZM48.1899 21.356C48.1899 24.632 49.7739 26.36 52.5099 26.36C54.3099 26.36 56.8659 25.568 56.8659 25.568C57.2259 25.46 57.4059 25.064 57.3339 24.74L56.5419 21.752C56.4339 21.356 56.1099 21.212 55.7499 21.284C55.3899 21.356 54.8499 21.536 54.3459 21.536C53.9139 21.536 53.3739 21.464 53.3739 20.672V16.172H56.0379C56.4339 16.172 56.7219 15.848 56.7219 15.488V12.284C56.7219 11.888 56.4339 11.6 56.0379 11.6H53.3739V7.604C53.3739 7.244 53.0859 6.92 52.7259 6.92H48.8739C48.5139 6.92 48.1899 7.244 48.1899 7.604V11.6H47.2539C46.8939 11.6 46.6059 11.888 46.6059 12.284V15.488C46.6059 15.848 46.8939 16.172 47.2539 16.172H48.1899V21.356ZM58.9089 18.8C58.9089 22.94 62.1489 26.36 66.4329 26.36C68.7009 26.36 70.5009 25.568 71.7609 24.308C72.0849 23.984 72.0129 23.552 71.7969 23.264L69.9969 21.104C69.7809 20.852 69.4209 20.852 69.0969 21.104C68.5209 21.536 67.4769 21.968 66.5769 21.968C64.7049 21.968 63.9129 20.564 63.8049 19.592H72.4449C72.7689 19.592 73.0929 19.34 73.1289 18.98C73.1649 18.728 73.2009 18.26 73.2009 18.008C73.2009 14.048 70.0329 11.24 66.3609 11.24C62.1129 11.24 58.9089 14.732 58.9089 18.8ZM64.2729 16.784C64.4169 15.848 65.2449 15.092 66.2169 15.092C67.1529 15.092 68.0529 15.848 68.1249 16.784H64.2729ZM75.8092 25.316C75.8092 25.676 76.1332 26 76.4932 26H80.1652C80.7412 26 80.9572 25.748 80.9572 25.316V17.864C80.9572 16.64 81.7852 15.812 82.8652 15.812C83.1892 15.812 83.5492 15.92 83.7292 15.992C84.1252 16.136 84.3772 15.92 84.5212 15.668L86.2852 12.788C86.7892 11.96 85.3852 11.24 83.4052 11.24C81.5332 11.24 80.2012 12.572 79.4812 13.616L78.8332 12.032C78.7252 11.816 78.5812 11.6 78.1852 11.6H76.4932C76.1332 11.6 75.8092 11.888 75.8092 12.284V25.316ZM93.5834 25.676C94.0154 25.928 95.3474 26.36 96.5714 26.36C100.423 26.36 103.735 23.876 103.735 18.8C103.735 14.66 100.675 11.24 96.6074 11.24C93.4394 11.24 91.7834 13.508 91.7834 13.508L91.3514 12.32C91.2074 11.924 90.9554 11.6 90.5954 11.6H88.9034C88.5434 11.6 88.2194 11.924 88.2194 12.284V36.116C88.2194 36.476 88.5434 36.8 88.9034 36.8H92.8994C93.2594 36.8 93.5834 36.476 93.5834 36.116V25.676ZM93.0074 18.836C93.0074 17.18 94.2314 15.884 95.8874 15.884C97.5434 15.884 98.8034 17.18 98.8034 18.836C98.8034 20.456 97.5434 21.716 95.8874 21.716C94.2314 21.716 93.0074 20.456 93.0074 18.836ZM105.599 21.608C105.599 24.452 107.723 26.36 110.567 26.36C112.835 26.36 114.095 25.316 114.923 24.56L115.427 25.532C115.607 25.928 115.859 26 116.075 26H117.659C118.019 26 118.343 25.676 118.343 25.316V17.36C118.343 13.112 116.723 11.24 112.259 11.24C110.315 11.24 107.795 11.672 107.471 11.78C107.147 11.888 106.823 12.14 106.931 12.752L107.255 15.02C107.327 15.56 107.579 15.956 108.119 15.776C109.055 15.488 110.747 15.236 111.719 15.236C113.447 15.236 113.663 15.956 113.663 17.36C113.663 17.36 112.511 16.784 110.891 16.784C107.615 16.784 105.599 18.836 105.599 21.608ZM110.279 21.248C110.279 20.42 110.963 19.736 111.827 19.736C112.691 19.736 113.375 20.42 113.411 21.248C113.411 22.112 112.691 22.832 111.827 22.832C110.963 22.832 110.279 22.112 110.279 21.248ZM122.005 25.316C122.005 25.676 122.329 26 122.689 26H126.361C126.937 26 127.153 25.748 127.153 25.316V17.864C127.153 16.64 127.981 15.812 129.061 15.812C129.385 15.812 129.745 15.92 129.925 15.992C130.321 16.136 130.573 15.92 130.717 15.668L132.481 12.788C132.985 11.96 131.581 11.24 129.601 11.24C127.729 11.24 126.397 12.572 125.677 13.616L125.029 12.032C124.921 11.816 124.777 11.6 124.381 11.6H122.689C122.329 11.6 122.005 11.888 122.005 12.284V25.316ZM134.415 25.316C134.415 25.676 134.739 26 135.099 26H139.095C139.455 26 139.779 25.676 139.779 25.316V19.448L144.675 25.712C144.783 25.856 145.071 26 145.215 26H150.075C150.687 26 151.011 25.388 150.615 24.92L144.855 18.224L149.607 12.716C150.003 12.212 149.679 11.6 149.067 11.6H145.035C144.603 11.6 144.351 11.816 144.135 12.032L139.779 17.072V1.484C139.779 1.124 139.455 0.799998 139.095 0.799998H135.099C134.739 0.799998 134.415 1.124 134.415 1.484V25.316Z" fill="url(#paint0_linear)"/>
<defs>
<linearGradient id="paint0_linear" x1="151" y1="13.5" x2="1.0694e-06" y2="13.5" gradientUnits="userSpaceOnUse">
<stop stop-color="#471F9C"/>
<stop offset="1" stop-color="#3372EE"/>
</linearGradient>
</defs>
</svg>
